<?xml version="1.0" encoding="utf-8"?>
<!-- Generator: Adobe Illustrator 18.0.0, SVG Export Plug-In . SVG Version: 6.00 Build 0)  -->
<!DOCTYPE svg PUBLIC "-//W3C//DTD SVG 1.1//EN" "http://www.w3.org/Graphics/SVG/1.1/DTD/svg11.dtd">
<svg version="1.1" id="Capa_1" xmlns="http://www.w3.org/2000/svg" xmlns:xlink="http://www.w3.org/1999/xlink" x="0px" y="0px"
	 viewBox="240 240 30 30" enable-background="new 240 240 30 30" xml:space="preserve">
<g>
	<g id="post-blogger">
		<path fill="#FF6600" d="M267,240h-24c-1.7,0-3,1.4-3,3v24c0,1.7,1.3,3,3,3h24c1.6,0,3-1.3,3-3v-24C270,241.4,268.6,240,267,240z
			 M261,250.5v1.5c0,0.9,0.6,1.5,1.5,1.5s1.5,0.6,1.5,1.5v4.5c0,2.6-2,4.5-4.5,4.5h-9c-2.6,0-4.5-1.9-4.5-4.5V249
			c0-2.6,1.9-4.5,4.5-4.5h6c2.5,0,4.5,1.9,4.5,4.5V250.5z M252,252h3.9c0.9,0,1.5-0.6,1.5-1.5s-0.6-1.5-1.5-1.5H252
			c-0.9,0-1.5,0.6-1.5,1.5S251.1,252,252,252z M258,256.5h-6c-0.9,0-1.5,0.6-1.5,1.5c0,0.9,0.6,1.5,1.5,1.5h6c0.9,0,1.5-0.6,1.5-1.5
			C259.5,257.1,258.9,256.5,258,256.5z"/>
	</g>
</g>
</svg>
