<?xml version="1.0" encoding="UTF-8" standalone="no"?>
<svg width="1866px" height="1022px" viewBox="0 0 1866 1022" version="1.1" xmlns="http://www.w3.org/2000/svg" xmlns:xlink="http://www.w3.org/1999/xlink" xmlns:sketch="http://www.bohemiancoding.com/sketch/ns">
    <!-- Generator: Sketch 3.4 (15575) - http://www.bohemiancoding.com/sketch -->
    <title>Stroke 1</title>
    <desc>Created with Sketch.</desc>
    <defs></defs>
    <g id="Assets" stroke="none" stroke-width="1" fill="none" fill-rule="evenodd" sketch:type="MSPage">
        <g id="map-bg" sketch:type="MSArtboardGroup" transform="translate(0.000000, -58.000000)" fill-opacity="0.699999988">
            <g id="Map" sketch:type="MSLayerGroup" transform="translate(-16.000000, -92.000000)">
                <g id="canada" transform="translate(-606.000000, 88.000000)" sketch:type="MSShapeGroup">
                    <path d="M2291.79584,1463.4431 L2291.79584,1458.98294 L2287.34822,1445.59652 L2287.34822,1432.2101 L2296.24345,1432.2101 L2296.24345,1445.59652 L2327.40057,1445.59652 L2336.30176,1441.13636 L2345.19699,1432.2101 L2354.09817,1423.28979 L2362.99936,1423.28979 L2367.44697,1427.74994 L2367.44697,1432.2101 L2362.99936,1445.59652 L2358.54579,1454.52278 L2367.44697,1458.98294 L2367.44697,1463.4431 L2331.84819,1463.4431 L2318.49939,1467.90325 L2305.14464,1463.4431 L2291.79584,1463.4431 L2291.79584,1463.4431 Z M102.348729,392.630639 L106.802298,374.784062 L106.802298,352.47733 L66.7499478,352.47733 L66.7499478,339.090909 L62.3023329,339.090909 L427.209192,0 L449.459175,26.7728422 L467.255588,31.2329977 L471.709157,40.1533085 L489.511525,62.4659953 L493.95914,71.3863062 L489.511525,75.8464616 L485.057956,84.7727273 L467.255588,102.619304 L453.90679,124.931991 L436.104422,133.852301 L431.656807,147.238723 L436.104422,156.159033 L440.557991,160.619189 L453.90679,169.545455 L458.360359,169.545455 L458.360359,178.465765 L453.90679,182.931876 L453.90679,200.778452 L449.459175,209.698763 L436.104422,214.164873 L431.656807,214.164873 L427.209192,223.085184 L427.209192,232.01145 L445.01156,232.01145 L440.557991,245.397871 L436.104422,254.318182 L427.209192,263.244447 L422.755623,263.244447 L413.860393,267.704603 L409.406825,267.704603 L400.505641,285.551179 L404.95921,290.011335 L400.505641,316.778222 L404.95921,316.778222 L409.406825,321.244333 L418.308008,330.164643 L418.308008,339.090909 L422.755623,339.090909 L422.755623,352.47733 L413.860393,374.784062 L413.860393,383.710328 L400.505641,383.710328 L396.058026,397.090794 L396.058026,406.01706 L400.505641,414.937371 L400.505641,423.863636 L391.604457,437.250057 L387.156842,437.250057 L382.709227,446.170368 L382.709227,468.4771 L396.058026,468.4771 L396.058026,481.869476 L400.505641,513.096519 L404.95921,513.096519 L400.505641,522.022785 L396.058026,535.403251 L396.058026,553.249828 L409.406825,553.249828 L413.860393,557.715938 L418.308008,566.636249 L431.656807,566.636249 L440.557991,575.562514 L449.459175,575.562514 L449.459175,584.48878 L445.01156,597.869246 L445.01156,606.795512 L436.104422,611.255667 L431.656807,629.102244 L360.45329,588.942981 L271.45336,530.943096 L182.45343,468.4771 L102.348729,392.630639 L102.348729,392.630639 Z M22.2499826,812.03412 L26.6975975,825.414586 L31.1511664,834.340852 L26.6975975,843.261162 L22.2499826,847.727273 L17.8023677,856.653538 L22.2499826,874.500115 L17.8023677,878.96027 L8.90118383,878.96027 L8.90118383,874.500115 L1.42108547e-14,856.653538 L1.42108547e-14,825.414586 L8.90118383,820.954431 L13.3487988,803.107854 L13.3487988,780.801122 L17.8023677,771.874856 L26.6975975,758.49439 L31.1511664,758.49439 L35.5987814,767.414701 L40.0463963,771.874856 L40.0463963,780.801122 L53.401149,780.801122 L57.848764,789.721433 L53.401149,794.187543 L44.4999652,798.647699 L31.1511664,812.03412 L22.2499826,812.03412 Z M133.499896,1200.2046 L133.499896,1186.81818 L142.401079,1173.43176 L133.499896,1146.66487 L129.052281,1137.73861 L120.151097,1124.35219 L120.151097,1102.0395 L111.249913,1070.8065 L102.348729,1061.88619 L80.1047005,1039.57946 L75.6511316,1017.27273 L66.7499478,1003.88631 L57.848764,994.96004 L40.0463963,994.96004 L35.5987814,1003.88631 L40.0463963,1017.27273 L53.401149,1030.65319 L44.4999652,1039.57946 L44.4999652,1052.96588 L48.9535341,1057.42604 L57.848764,1061.88619 L66.7499478,1061.88619 L66.7499478,1093.11919 L75.6511316,1106.50561 L75.6511316,1115.43188 L84.5523155,1124.35219 L84.5523155,1137.73861 L88.9999304,1146.66487 L97.9011142,1146.66487 L102.348729,1160.04534 L106.802298,1168.97161 L106.802298,1200.2046 L111.249913,1200.2046 L129.052281,1209.12491 L133.499896,1200.2046 Z M378.258635,1021.72991 L373.808043,1012.80662 L373.808043,981.579574 L529.557921,682.641974 L480.610341,660.335242 L431.656807,629.102244 L360.45329,588.942981 L271.45336,530.943096 L182.45343,468.4771 L102.348729,392.630639 L97.9011142,414.937371 L88.9999304,428.323792 L84.5523155,446.170368 L80.1047005,459.556789 L75.6511316,468.4771 L80.1047005,477.403366 L97.9011142,468.4771 L111.249913,468.4771 L129.052281,459.556789 L151.302263,459.556789 L155.755832,468.4771 L164.651062,481.869476 L155.755832,490.789787 L155.755832,499.716053 L164.651062,522.022785 L164.651062,575.562514 L151.302263,597.869246 L151.302263,629.102244 L142.401079,642.488665 L133.499896,651.408976 L129.052281,660.335242 L133.499896,673.721663 L142.401079,673.721663 L151.302263,682.641974 L151.302263,740.647813 L133.499896,749.568124 L129.052281,758.49439 L120.151097,767.414701 L111.249913,771.874856 L102.348729,771.874856 L102.348729,780.801122 L106.802298,794.187543 L106.802298,812.03412 L102.348729,825.414586 L102.348729,847.727273 L111.249913,847.727273 L120.151097,834.340852 L129.052281,843.261162 L129.052281,847.727273 L111.249913,865.573849 L106.802298,870.034005 L106.802298,878.96027 L97.9011142,896.806847 L97.9011142,910.187313 L102.348729,919.113579 L106.802298,932.5 L120.151097,928.03389 L129.052281,932.5 L129.052281,950.346577 L106.802298,950.346577 L102.348729,954.806732 L97.9011142,972.653309 L97.9011142,981.579574 L80.1047005,981.579574 L75.6511316,986.03973 L75.6511316,994.96004 L80.1047005,1003.88631 L84.5523155,1017.27273 L97.9011142,1039.57946 L106.802298,1048.49977 L111.249913,1057.42604 L120.151097,1070.8065 L120.151097,1079.73277 L129.052281,1084.19292 L133.499896,1070.8065 L142.401079,1070.8065 L142.401079,1093.11919 L133.499896,1102.0395 L133.499896,1115.43188 L151.302263,1142.19876 L151.302263,1146.66487 L164.651062,1146.66487 L164.651062,1155.58518 L173.552246,1160.04534 L164.651062,1164.51145 L164.651062,1186.81818 L195.802228,1209.12491 L253.656946,1240.35791 L324.854509,1276.05106 L400.505641,1307.27811 L458.360359,1329.59079 L456.133574,1325.12766 L458.360359,1329.59079 L480.610341,1338.51111 L569.610272,1365.2899 L600.761438,1374.21021 L778.767253,780.801122 L680.860185,749.568124 L605.209053,718.335127 L529.557921,682.641974 L373.808043,981.579574 L373.808043,1012.80662 L378.258635,1021.72991 Z M778.767253,780.801122 L600.761438,1374.21021 L667.511386,1392.05679 L765.418454,1418.82963 L872.220752,1441.13636 L903.371918,1445.59652 L1001.26708,843.261162 L925.615947,825.414586 L854.418384,803.107854 L778.767253,780.801122 L778.767253,780.801122 Z M1001.26708,843.261162 L903.371918,1445.59652 L979.02305,1458.98294 L1090.27296,1472.36341 L1125.87174,1476.82952 L1130.32531,1476.82952 L1125.87174,1463.4431 L1130.32531,1454.52278 L1148.12173,1271.58495 L1197.07526,1231.43165 L1361.72632,1057.42604 L1348.37752,1048.49977 L1330.57516,1039.57946 L1312.77874,1035.1193 L1303.87756,1039.57946 L1281.62758,1048.49977 L1246.02284,1057.42604 L1228.22643,1061.88619 L1214.87167,1066.34635 L1214.87167,1061.88619 L1219.32524,1057.42604 L1228.22643,1052.96588 L1241.57523,1052.96588 L1254.92403,1039.57946 L1259.37759,1035.1193 L1254.92403,1017.27273 L1250.47641,994.96004 L1250.47641,977.113464 L1246.02284,954.806732 L1241.57523,941.420311 L1214.87167,941.420311 L1205.97644,932.5 L1201.52288,928.03389 L1197.07526,932.5 L1192.62765,928.03389 L1188.17408,919.113579 L1192.62765,905.727158 L1197.07526,887.880581 L1201.52288,878.96027 L1201.52288,870.034005 L1148.12173,865.573849 L1076.92416,856.653538 L1001.26708,843.261162 L1001.26708,843.261162 Z M1686.58679,1351.89753 L1677.6856,1347.43737 L1668.78442,1347.43737 L1659.88919,1351.89753 L1650.98205,1347.43737 L1650.98205,1338.51111 L1646.53444,1320.66453 L1637.63325,1307.27811 L1624.28445,1307.27811 L1619.83088,1293.89764 L1615.38327,1280.51122 L1606.48209,1276.05106 L1593.13329,1267.1248 L1588.68567,1253.74433 L1593.13329,1235.89776 L1588.68567,1226.97149 L1584.23806,1213.58507 L1575.33092,1177.89192 L1584.23806,1142.19876 L1584.23806,1137.73861 L1570.8833,1137.73861 L1553.08094,1142.19876 L1530.83095,1137.73861 L1517.48216,1137.73861 L1504.1274,1146.66487 L1499.67979,1146.66487 L1481.87742,1142.19876 L1477.42981,1133.27845 L1472.98219,1119.89203 L1459.63339,1115.43188 L1432.92984,1110.97172 L1415.12747,1093.11919 L1410.67986,1093.11919 L1406.23224,1070.8065 L1401.77867,1061.88619 L1388.42987,1057.42604 L1361.72632,1057.42604 L1197.07526,1231.43165 L1148.12173,1271.58495 L1130.32531,1454.52278 L1139.22054,1458.98294 L1143.67411,1481.28967 L1148.12173,1485.74983 L1174.82528,1494.67609 L1201.52288,1503.5964 L1223.77286,1516.98283 L1241.57523,1525.90314 L1250.47641,1539.28956 L1272.72639,1539.28956 L1290.52876,1525.90314 L1299.42399,1521.44298 L1335.02873,1539.28956 L1343.92396,1539.28956 L1352.82514,1530.36925 L1357.27871,1525.90314 L1375.08108,1521.44298 L1379.52869,1512.52267 L1383.98226,1499.13625 L1388.42987,1490.20998 L1401.77867,1485.74983 L1419.58104,1494.67609 L1446.28459,1499.13625 L1459.63339,1508.05656 L1468.52862,1521.44298 L1472.98219,1534.8294 L1499.67979,1548.21582 L1504.1274,1552.67598 L1508.58097,1561.59629 L1517.48216,1566.0624 L1517.48216,1606.21571 L1521.93572,1624.06824 L1526.38334,1628.52839 L1544.17975,1632.98855 L1548.63332,1637.44871 L1557.53451,1641.91482 L1579.77853,1632.98855 L1597.58686,1637.44871 L1610.93565,1641.91482 L1633.18564,1637.44871 L1646.53444,1641.91482 L1650.98205,1646.37497 L1659.88919,1650.83513 L1668.78442,1646.37497 L1682.13322,1646.37497 L1691.0344,1650.83513 L1691.0344,1655.30124 L1695.48797,1668.6817 L1699.93558,1686.52828 L1713.28438,1699.9147 L1713.28438,1717.76128 L1699.93558,1722.22143 L1691.0344,1717.76128 L1686.58679,1708.83501 L1673.23799,1699.9147 L1655.42967,1686.52828 L1655.42967,1690.98844 L1659.88919,1695.45455 L1664.3368,1704.37486 L1664.3368,1717.76128 L1655.42967,1735.60785 L1650.98205,1753.45443 L1655.42967,1775.76116 L1650.98205,1789.14758 L1637.63325,1793.60774 L1633.18564,1806.99416 L1624.28445,1829.30089 L1628.73207,1838.2212 L1624.28445,1847.14747 L1606.48209,1847.14747 L1606.48209,1860.53389 L1610.93565,1865 L1615.38327,1865 L1628.73207,1860.53389 L1650.98205,1847.14747 L1659.88919,1833.76105 L1673.23799,1820.38058 L1699.93558,1820.38058 L1713.28438,1815.91447 L1726.63318,1802.534 L1735.54032,1802.534 L1748.88912,1798.06789 L1757.78435,1793.60774 L1762.23792,1789.14758 L1762.23792,1780.22132 L1726.63318,1780.22132 L1726.63318,1775.76116 L1731.0808,1762.37474 L1748.88912,1748.99428 L1766.68553,1740.06801 L1784.4879,1735.60785 L1802.29027,1740.06801 L1824.54025,1735.60785 L1837.88905,1726.68159 L1851.23785,1722.22143 L1864.58665,1699.9147 L1882.38901,1673.14186 L1904.639,1655.30124 L1917.9878,1646.37497 L1940.24373,1628.52839 L1935.79016,1628.52839 L1917.9878,1624.06824 L1904.639,1624.06824 L1877.9414,1637.44871 L1837.88905,1637.44871 L1784.4879,1615.14197 L1766.68553,1615.14197 L1739.98794,1592.82929 L1722.18557,1579.44287 L1717.732,1566.0624 L1695.48797,1360.82379 L1686.58679,1351.89753 Z M2429.7493,1418.82963 L2429.7493,1378.67037 L2411.95289,1378.67037 L2411.95289,1396.51694 L2407.49932,1414.36352 L2398.60409,1423.28979 L2398.60409,1436.67621 L2403.05171,1450.05667 L2411.95289,1458.98294 L2429.7493,1454.52278 L2434.19692,1454.52278 L2443.10406,1445.59652 L2452.00524,1436.67621 L2452.00524,1409.90337 L2434.19692,1418.82963 L2429.7493,1418.82963 Z M2296.24345,1499.13625 L2296.24345,1508.05656 L2300.70298,1512.52267 L2309.59821,1512.52267 L2322.94701,1508.05656 L2327.40057,1503.5964 L2331.84819,1512.52267 L2327.40057,1521.44298 L2314.05178,1525.90314 L2318.49939,1534.8294 L2314.05178,1539.28956 L2300.70298,1534.8294 L2287.34822,1539.28956 L2282.89466,1548.21582 L2273.99943,1566.0624 L2260.65063,1579.44287 L2251.74944,1588.36913 L2247.29587,1601.75555 L2251.74944,1624.06824 L2256.19706,1628.52839 L2273.99943,1628.52839 L2282.89466,1637.44871 L2287.34822,1637.44871 L2296.24345,1632.98855 L2296.24345,1624.06824 L2305.14464,1615.14197 L2318.49939,1588.36913 L2318.49939,1574.98271 L2327.40057,1561.59629 L2345.19699,1561.59629 L2349.65056,1548.21582 L2354.09817,1539.28956 L2371.89459,1534.8294 L2385.24934,1521.44298 L2403.05171,1499.13625 L2420.84812,1485.74983 L2429.7493,1476.82952 L2429.7493,1472.36341 L2420.84812,1463.4431 L2407.49932,1463.4431 L2394.15052,1472.36341 L2371.89459,1476.82952 L2354.09817,1476.82952 L2340.74937,1485.74983 L2331.84819,1485.74983 L2327.40057,1481.28967 L2318.49939,1481.28967 L2309.59821,1485.74983 L2309.59821,1490.20998 L2300.70298,1490.20998 L2296.24345,1499.13625 L2296.24345,1499.13625 Z M2518.75519,1146.66487 L2518.75519,1168.97161 L2532.10399,1164.51145 L2541.00517,1173.43176 L2549.90635,1177.89192 L2572.15038,1164.51145 L2581.05157,1146.66487 L2589.9587,1142.19876 L2603.3075,1142.19876 L2607.75512,1146.66487 L2603.3075,1168.97161 L2603.3075,1182.35803 L2607.75512,1191.27834 L2616.6563,1191.27834 L2621.10392,1182.35803 L2630.0051,1168.97161 L2634.45272,1155.58518 L2643.3539,1160.04534 L2643.3539,1191.27834 L2634.45272,1195.73849 L2634.45272,1213.58507 L2647.80151,1218.05118 L2647.80151,1195.73849 L2652.25508,1191.27834 L2656.7027,1195.73849 L2656.7027,1218.05118 L2661.15627,1231.43165 L2670.05745,1218.05118 L2678.95864,1218.05118 L2683.40625,1222.51133 L2678.95864,1240.35791 L2678.95864,1267.1248 L2670.05745,1276.05106 L2665.60984,1276.05106 L2661.15627,1267.1248 L2656.7027,1271.58495 L2647.80151,1276.05106 L2638.90628,1276.05106 L2634.45272,1262.66464 L2638.90628,1249.27822 L2638.90628,1235.89776 L2630.0051,1226.97149 L2630.0051,1235.89776 L2621.10392,1249.27822 L2616.6563,1262.66464 L2607.75512,1271.58495 L2607.75512,1284.97138 L2603.3075,1298.3578 L2598.85393,1307.27811 L2581.05157,1307.27811 L2581.05157,1298.3578 L2589.9587,1284.97138 L2598.85393,1267.1248 L2598.85393,1253.74433 L2589.9587,1253.74433 L2581.05157,1262.66464 L2576.60395,1276.05106 L2572.15038,1276.05106 L2563.25515,1271.58495 L2558.80158,1271.58495 L2554.35397,1280.51122 L2541.00517,1284.97138 L2496.49925,1302.81795 L2483.15045,1307.27811 L2465.35404,1325.12468 L2452.00524,1329.59079 L2443.10406,1329.59079 L2434.19692,1325.12468 L2443.10406,1307.27811 L2452.00524,1284.97138 L2452.00524,1280.51122 L2465.35404,1276.05106 L2456.45286,1271.58495 L2452.00524,1267.1248 L2443.10406,1276.05106 L2434.19692,1276.05106 L2429.7493,1271.58495 L2429.7493,1262.66464 L2434.19692,1262.66464 L2443.10406,1249.27822 L2452.00524,1240.35791 L2456.45286,1226.97149 L2452.00524,1218.05118 L2452.00524,1191.27834 L2443.10406,1164.51145 L2452.00524,1142.19876 L2443.10406,1124.35219 L2452.00524,1102.0395 L2452.00524,1084.19292 L2474.25522,1066.34635 L2483.15045,1061.88619 L2487.60402,1061.88619 L2487.60402,1079.73277 L2474.25522,1093.11919 L2474.25522,1110.97172 L2483.15045,1124.35219 L2483.15045,1173.43176 L2487.60402,1177.89192 L2496.49925,1173.43176 L2496.49925,1160.04534 L2509.84805,1146.66487 L2518.75519,1146.66487 Z M2429.7493,1093.11919 L2443.10406,1093.11919 L2443.10406,1088.65903 L2452.00524,1070.8065 L2465.35404,1057.42604 L2465.35404,1039.57946 L2452.00524,1026.19304 L2443.10406,1012.80662 L2434.19692,986.03973 L2429.7493,981.579574 L2420.84812,977.113464 L2398.60409,977.113464 L2371.89459,963.732998 L2354.09817,963.732998 L2349.65056,972.653309 L2340.74937,986.03973 L2336.30176,1008.34646 L2322.94701,1017.27273 L2318.49939,1026.19304 L2314.05178,1039.57946 L2309.59821,1052.96588 L2296.24345,1052.96588 L2296.24345,1039.57946 L2300.70298,1017.27273 L2314.05178,1003.88631 L2327.40057,986.03973 L2336.30176,963.732998 L2345.19699,959.266887 L2354.09817,950.346577 L2354.09817,941.420311 L2327.40057,941.420311 L2322.94701,932.5 L2318.49939,932.5 L2314.05178,941.420311 L2300.70298,954.806732 L2282.89466,941.420311 L2273.99943,950.346577 L2256.19706,941.420311 L2242.84826,932.5 L2233.94708,928.03389 L2211.69709,928.03389 L2202.79591,923.573734 L2193.89472,910.187313 L2189.44711,901.267002 L2189.44711,878.96027 L2180.54593,865.573849 L2171.64474,856.653538 L2158.28999,856.653538 L2153.84237,847.727273 L2149.39476,834.340852 L2122.69716,825.414586 L2104.89479,812.03412 L2091.546,789.721433 L2082.63886,780.801122 L2060.39483,771.874856 L2051.49365,758.49439 L2042.59246,749.568124 L2029.24366,745.107969 L2033.69128,771.874856 L2042.59246,789.721433 L2060.39483,803.107854 L2082.63886,834.340852 L2078.19124,856.653538 L2104.89479,856.653538 L2113.79598,887.880581 L2127.14478,905.727158 L2113.79598,928.03389 L2153.84237,972.653309 L2149.39476,986.03973 L2171.64474,1003.88631 L2153.84237,1039.57946 L2127.14478,1030.65319 L2113.79598,1039.57946 L2078.19124,1030.65319 L2064.84244,1017.27273 L2078.19124,1061.88619 L2047.04008,1039.57946 L2047.04008,1061.88619 L2055.94126,1079.73277 L2064.84244,1106.50561 L2078.19124,1124.35219 L2078.19124,1142.19876 L2087.09243,1168.97161 L2113.79598,1142.19876 L2113.79598,1177.89192 L2144.94119,1195.73849 L2167.19713,1168.97161 L2189.44711,1200.2046 L2202.79591,1177.89192 L2189.44711,1146.66487 L2189.44711,1124.35219 L2202.79591,1133.27845 L2202.79591,1142.19876 L2220.59232,1164.51145 L2420.84812,1070.8065 L2429.7493,1093.11919 Z M2151.61559,1423.28979 L2158.28999,1423.28979 L2167.19713,1418.82963 L2171.64474,1414.36352 L2176.09831,1414.36352 L2189.44711,1409.90337 L2211.69709,1409.90337 L2220.59232,1414.36352 L2229.49351,1414.36352 L2233.94708,1405.44321 L2242.84826,1405.44321 L2247.29587,1409.90337 L2251.74944,1414.36352 L2247.29587,1427.74994 L2247.29587,1436.67621 L2265.09824,1436.67621 L2269.54586,1441.13636 L2269.54586,1458.98294 L2287.34822,1476.82952 L2305.14464,1472.36341 L2314.05178,1472.36341 L2305.14464,1481.28967 L2309.59821,1485.74983 L2300.70298,1490.20998 L2296.24345,1499.13625 L2287.34822,1494.67609 L2287.34822,1503.5964 L2282.89466,1521.44298 L2273.99943,1530.36925 L2256.19706,1539.28956 L2242.84826,1557.13613 L2229.49351,1561.59629 L2216.14471,1566.0624 L2216.14471,1574.98271 L2207.24352,1574.98271 L2207.24352,1570.52255 L2193.89472,1566.0624 L2193.89472,1552.67598 L2189.44711,1548.21582 L2171.64474,1548.21582 L2167.19713,1539.28956 L2153.84237,1494.67609 L2153.84237,1472.36341 L2149.39476,1467.90325 L2140.49358,1467.90325 L2136.04596,1472.36341 L2131.59239,1481.28967 L2113.79598,1485.74983 L2109.34241,1485.74983 L2100.44718,1472.36341 L2109.34241,1467.90325 L2118.24359,1463.4431 L2122.69716,1454.52278 L2122.69716,1436.67621 L2127.14478,1427.74994 L2131.59239,1423.28979 L2133.81918,1421.05971 L2131.59239,1423.28979 L2127.14478,1427.74994 L2122.69716,1436.67621 L2122.69716,1454.52278 L2118.24359,1463.4431 L2109.34241,1467.90325 L2100.44718,1472.36341 L2087.09243,1494.67609 L2078.19124,1521.44298 L2069.29006,1539.28956 L2069.29006,1552.67598 L2078.19124,1566.0624 L2078.19124,1574.98271 L2064.84244,1606.21571 L2047.04008,1606.21571 L2038.14485,1624.06824 L2029.24366,1628.52839 L2002.54011,1632.98855 L1975.84251,1637.44871 L1922.44136,1655.30124 L1926.88898,1646.37497 L1940.24373,1641.91482 L1962.49372,1628.52839 L1971.3949,1615.14197 L1975.84251,1592.82929 L2002.54011,1557.13613 L2029.24366,1543.74971 L2047.04008,1534.8294 L2060.39483,1516.98283 L2078.19124,1472.36341 L2087.09243,1441.13636 L2109.34241,1414.36352 L2127.14478,1392.05679 L2149.39476,1365.2899 L2167.19713,1351.89753 L2189.44711,1338.51111 L2207.24352,1329.59079 L2229.49351,1325.12468 L2242.84826,1325.12468 L2247.29587,1329.59079 L2251.74944,1338.51111 L2260.65063,1342.97126 L2260.65063,1351.89753 L2256.19706,1360.82379 L2238.40064,1369.75006 L2233.94708,1378.67037 L2229.49351,1383.13648 L2216.14471,1383.13648 L2207.24352,1387.59663 L2202.79591,1396.51694 L2198.34829,1409.90337 L2189.44711,1409.90337 L2176.09831,1414.36352 L2171.64474,1414.36352 L2167.19713,1418.82963 L2158.28999,1423.28979 L2151.61559,1423.28979 Z M2233.94708,1284.97138 L2247.29587,1276.05106 L2269.54586,1271.58495 L2291.79584,1271.58495 L2314.05178,1276.05106 L2327.40057,1271.58495 L2336.30176,1271.58495 L2340.74937,1280.51122 L2340.74937,1289.43153 L2327.40057,1293.89764 L2318.49939,1293.89764 L2309.59821,1298.3578 L2287.34822,1293.89764 L2269.54586,1293.89764 L2260.65063,1284.97138 L2233.94708,1284.97138 L2233.94708,1284.97138 Z M1664.3368,704.948706 L1699.93558,704.948706 L1713.28438,727.261392 L1735.54032,718.335127 L1753.33673,696.028395 L1775.58672,696.028395 L1793.38313,736.181703 L1824.54025,727.261392 L1828.98787,749.568124 L1846.79023,758.49439 L1855.68546,749.568124 L1873.48783,758.49439 L1891.2902,749.568124 L1904.639,749.568124 L1886.84258,771.874856 L1900.19138,798.647699 L1895.73781,825.414586 L1904.639,843.261162 L1926.88898,856.653538 L1931.33659,865.573849 L1949.14492,856.653538 L1962.49372,865.573849 L1958.04015,901.267002 L1975.84251,887.880581 L1975.84251,856.653538 L1998.0925,856.653538 L2006.98773,825.414586 L2033.69128,856.653538 L2020.34248,812.03412 L2029.24366,794.187543 L2020.34248,771.874856 L2024.79605,740.647813 L2029.24366,745.107969 L2033.69128,771.874856 L2042.59246,789.721433 L2060.39483,803.107854 L2064.84244,825.414586 L2082.63886,834.340852 L2078.19124,856.653538 L2104.89479,856.653538 L2113.79598,887.880581 L2127.14478,905.727158 L2113.79598,928.03389 L2140.49358,959.266887 L2153.84237,972.653309 L2149.39476,986.03973 L2171.64474,1003.88631 L2153.84237,1039.57946 L2127.14478,1030.65319 L2113.79598,1039.57946 L2078.19124,1030.65319 L2064.84244,1017.27273 L2078.19124,1061.88619 L2047.04008,1039.57946 L2047.04008,1061.88619 L2055.94126,1079.73277 L2064.84244,1106.50561 L2078.19124,1124.35219 L2078.19124,1142.19876 L2087.09243,1168.97161 L2113.79598,1142.19876 L2113.79598,1177.89192 L2144.94119,1195.73849 L2167.19713,1168.97161 L2189.44711,1200.2046 L2202.79591,1177.89192 L2189.44711,1146.66487 L2189.44711,1124.35219 L2202.79591,1133.27845 L2202.79591,1142.19876 L2220.59232,1164.51145 L2420.84812,1070.8065 L2429.7493,1093.11919 L2420.84812,1115.43188 L2389.70291,1124.35219 L2389.70291,1160.04534 L2367.44697,1186.81818 L2367.44697,1200.2046 L2331.84819,1226.97149 L2287.34822,1244.81807 L2198.34829,1271.58495 L2149.39476,1284.97138 L2136.04596,1307.27811 L2140.49358,1342.97126 L2109.34241,1356.35768 L2078.19124,1409.90337 L2060.39483,1472.36341 L2051.49365,1490.20998 L2038.14485,1521.44298 L1993.63893,1543.74971 L1971.3949,1574.98271 L1962.49372,1597.28944 L1953.59253,1615.14197 L1940.24373,1628.52839 L1935.79016,1628.52839 L1917.9878,1624.06824 L1904.639,1624.06824 L1877.9414,1637.44871 L1837.88905,1637.44871 L1784.4879,1615.14197 L1766.68553,1615.14197 L1739.98794,1592.82929 L1722.18557,1579.44287 L1717.732,1566.0624 L1695.48797,1360.82379 L1686.58679,1351.89753 L1695.48797,1329.59079 L1717.732,1325.12468 L1704.3832,1298.3578 L1708.83677,1276.05106 L1704.3832,1253.74433 L1695.48797,1240.35791 L1691.0344,1226.97149 L1699.93558,1200.2046 L1677.6856,1186.81818 L1673.23799,1160.04534 L1695.48797,1142.19876 L1722.18557,1115.43188 L1753.33673,1061.88619 L1775.58672,1057.42604 L1757.78435,1035.1193 L1744.43555,1008.34646 L1717.732,963.732998 L1682.13322,941.420311 L1673.23799,932.5 L1677.6856,905.727158 L1695.48797,878.96027 L1695.48797,847.727273 L1682.13322,834.340852 L1677.6856,812.03412 L1664.3368,812.03412 L1664.3368,794.187543 L1673.23799,771.874856 L1646.53444,758.49439 L1646.53444,736.181703 L1664.3368,704.948706 Z M1504.1274,107.085414 L1504.1274,124.931991 L1508.58097,129.392146 L1517.48216,133.852301 L1521.93572,138.312457 L1526.38334,147.238723 L1526.38334,156.159033 L1575.33092,156.159033 L1579.77853,147.238723 L1579.77853,138.312457 L1575.33092,133.852301 L1575.33092,129.392146 L1566.42974,124.931991 L1557.53451,124.931991 L1557.53451,116.005725 L1553.08094,107.085414 L1553.08094,102.619304 L1535.28452,102.619304 L1521.93572,107.085414 L1504.1274,107.085414 Z M1139.22054,321.244333 L1143.67411,307.857911 L1143.67411,298.937601 L1139.22054,298.937601 L1130.32531,290.011335 L1121.42413,285.551179 L1116.97651,267.704603 L1116.97651,254.318182 L1112.52295,245.397871 L1094.72058,245.397871 L1090.27296,232.01145 L1090.27296,209.698763 L1094.72058,178.465765 L1099.17415,156.159033 L1094.72058,133.852301 L1099.17415,129.392146 L1099.17415,124.931991 L1076.92416,102.619304 L1072.4706,102.619304 L1063.56941,107.085414 L1059.1218,116.005725 L1059.1218,187.392031 L1050.22061,191.852187 L1045.773,187.392031 L1036.87181,182.931876 L1036.87181,169.545455 L1041.31943,147.238723 L1045.773,133.852301 L1041.31943,116.005725 L1023.52302,116.005725 L1010.17422,129.392146 L1005.72065,133.852301 L987.91828,133.852301 L983.470665,129.392146 L987.91828,124.931991 L996.819464,124.931991 L996.819464,116.005725 L992.371849,102.619304 L956.767114,102.619304 L956.767114,93.698993 L965.668297,93.698993 L970.121866,84.7727273 L974.569481,80.3125718 L974.569481,71.3863062 L970.121866,62.4659953 L956.767114,62.4659953 L947.871884,71.3863062 L943.418315,71.3863062 L930.069516,75.8464616 L925.615947,71.3863062 L903.371918,71.3863062 L898.91835,75.8464616 L894.470735,84.7727273 L885.569551,116.005725 L863.319568,116.005725 L863.319568,129.392146 L872.220752,133.852301 L885.569551,138.312457 L912.267148,156.159033 L912.267148,160.619189 L890.017166,160.619189 L876.668367,156.159033 L858.865999,156.159033 L849.964815,169.545455 L854.418384,178.465765 L863.319568,178.465765 L867.767183,182.931876 L894.470735,191.852187 L912.267148,200.778452 L938.9707,223.085184 L947.871884,232.01145 L947.871884,236.471605 L943.418315,245.397871 L938.9707,245.397871 L925.615947,236.471605 L903.371918,232.01145 L881.115982,223.085184 L863.319568,214.164873 L854.418384,214.164873 L845.517201,223.085184 L845.517201,245.397871 L858.865999,254.318182 L876.668367,267.704603 L903.371918,285.551179 L898.91835,298.937601 L898.91835,321.244333 L903.371918,330.164643 L938.9707,330.164643 L952.319499,339.090909 L979.02305,339.090909 L987.91828,330.164643 L1019.06945,330.164643 L1023.52302,321.244333 L1027.97063,316.778222 L1041.31943,316.778222 L1041.31943,330.164643 L1045.773,330.164643 L1054.67418,339.090909 L1090.27296,370.323907 L1103.62176,370.323907 L1116.97651,361.397641 L1121.42413,361.397641 L1125.87174,343.551065 L1121.42413,339.090909 L1099.17415,339.090909 L1099.17415,330.164643 L1103.62176,321.244333 L1112.52295,316.778222 L1125.87174,316.778222 L1134.77293,321.244333 L1139.22054,321.244333 Z M1085.81939,93.698993 L1094.72058,84.7727273 L1108.07533,80.3125718 L1116.97651,84.7727273 L1121.42413,93.698993 L1125.87174,107.085414 L1125.87174,124.931991 L1121.42413,129.392146 L1116.97651,133.852301 L1112.52295,133.852301 L1108.07533,129.392146 L1108.07533,116.005725 L1103.62176,102.619304 L1090.27296,102.619304 L1085.81939,93.698993 Z M1197.07526,245.397871 L1192.62765,236.471605 L1183.72646,214.164873 L1174.82528,200.778452 L1152.5753,178.465765 L1148.12173,178.465765 L1148.12173,156.159033 L1152.5753,147.238723 L1157.02291,147.238723 L1161.47648,156.159033 L1170.37171,160.619189 L1174.82528,169.545455 L1183.72646,169.545455 L1188.17408,156.159033 L1192.62765,138.312457 L1188.17408,124.931991 L1183.72646,124.931991 L1183.72646,107.085414 L1188.17408,102.619304 L1197.07526,102.619304 L1205.97644,107.085414 L1210.42406,116.005725 L1219.32524,116.005725 L1228.22643,107.085414 L1232.67404,107.085414 L1237.12761,116.005725 L1237.12761,129.392146 L1232.67404,138.312457 L1223.77286,147.238723 L1219.32524,156.159033 L1223.77286,160.619189 L1232.67404,169.545455 L1237.12761,169.545455 L1241.57523,178.465765 L1241.57523,187.392031 L1237.12761,200.778452 L1228.22643,214.164873 L1219.32524,232.01145 L1210.42406,236.471605 L1197.07526,245.397871 L1197.07526,245.397871 Z M1174.82528,374.784062 L1170.37171,370.323907 L1170.37171,361.397641 L1174.82528,361.397641 L1183.72646,352.47733 L1188.17408,343.551065 L1188.17408,339.090909 L1197.07526,321.244333 L1201.52288,321.244333 L1205.97644,330.164643 L1210.42406,330.164643 L1210.42406,339.090909 L1214.87167,343.551065 L1228.22643,370.323907 L1237.12761,374.784062 L1237.12761,392.630639 L1232.67404,397.090794 L1228.22643,406.01706 L1214.87167,406.01706 L1210.42406,397.090794 L1201.52288,392.630639 L1174.82528,374.784062 L1174.82528,374.784062 Z M1272.72639,209.698763 L1268.27878,191.852187 L1263.82521,178.465765 L1263.82521,169.545455 L1268.27878,156.159033 L1268.27878,147.238723 L1263.82521,129.392146 L1263.82521,116.005725 L1272.72639,102.619304 L1281.62758,93.698993 L1290.52876,93.698993 L1294.97638,102.619304 L1330.57516,102.619304 L1330.57516,124.931991 L1321.67993,133.852301 L1321.67993,169.545455 L1317.22636,178.465765 L1299.42399,178.465765 L1294.97638,169.545455 L1286.07519,169.545455 L1286.07519,178.465765 L1290.52876,187.392031 L1290.52876,209.698763 L1272.72639,209.698763 L1272.72639,209.698763 Z M1650.98205,406.01706 L1646.53444,397.090794 L1637.63325,397.090794 L1628.73207,406.01706 L1619.83088,406.01706 L1619.83088,437.250057 L1624.28445,450.630524 L1633.18564,459.556789 L1646.53444,459.556789 L1650.98205,450.630524 L1650.98205,437.250057 L1655.42967,414.937371 L1650.98205,406.01706 L1650.98205,406.01706 Z M1464.08101,544.329517 L1450.73221,544.329517 L1441.82507,566.636249 L1432.92984,611.255667 L1437.37745,620.181933 L1446.28459,629.102244 L1446.28459,642.488665 L1441.82507,651.408976 L1432.92984,660.335242 L1428.47627,664.795397 L1428.47627,682.641974 L1468.52862,682.641974 L1472.98219,704.948706 L1477.42981,704.948706 L1486.33099,696.028395 L1490.7786,682.641974 L1495.23217,664.795397 L1499.67979,660.335242 L1513.02859,660.335242 L1517.48216,651.408976 L1517.48216,642.488665 L1526.38334,642.488665 L1530.83095,651.408976 L1539.73214,660.335242 L1544.17975,664.795397 L1553.08094,673.721663 L1575.33092,673.721663 L1579.77853,664.795397 L1579.77853,642.488665 L1575.33092,638.02851 L1570.8833,638.02851 L1557.53451,642.488665 L1553.08094,642.488665 L1548.63332,638.02851 L1544.17975,629.102244 L1548.63332,611.255667 L1544.17975,611.255667 L1539.73214,606.795512 L1521.93572,606.795512 L1504.1274,597.869246 L1490.7786,588.942981 L1490.7786,575.562514 L1472.98219,575.562514 L1464.08101,566.636249 L1459.63339,557.715938 L1464.08101,544.329517 Z M1553.08094,704.948706 L1544.17975,704.948706 L1535.28452,713.874971 L1530.83095,718.335127 L1521.93572,713.874971 L1513.02859,713.874971 L1504.1274,727.261392 L1499.67979,740.647813 L1499.67979,749.568124 L1526.38334,749.568124 L1530.83095,745.107969 L1535.28452,740.647813 L1544.17975,736.181703 L1553.08094,727.261392 L1557.53451,713.874971 L1553.08094,704.948706 Z M1610.93565,771.874856 L1619.83088,771.874856 L1624.28445,749.568124 L1624.28445,740.647813 L1619.83088,736.181703 L1610.93565,727.261392 L1606.48209,736.181703 L1597.58686,745.107969 L1597.58686,758.49439 L1602.03447,758.49439 L1606.48209,771.874856 L1610.93565,771.874856 L1610.93565,771.874856 Z M493.95914,71.3863062 L489.511525,75.8464616 L485.057956,84.7727273 L467.255588,102.619304 L453.90679,124.931991 L436.104422,133.852301 L431.656807,147.238723 L436.104422,156.159033 L440.557991,160.619189 L453.90679,169.545455 L458.360359,169.545455 L458.360359,178.465765 L453.90679,182.931876 L453.90679,200.778452 L449.459175,209.698763 L436.104422,214.164873 L431.656807,214.164873 L427.209192,223.085184 L427.209192,232.01145 L445.01156,232.01145 L440.557991,245.397871 L436.104422,254.318182 L427.209192,263.244447 L413.860393,263.244447 L409.406825,267.704603 L400.505641,285.551179 L404.95921,290.011335 L400.505641,316.778222 L404.95921,316.778222 L409.406825,321.244333 L418.308008,330.164643 L418.308008,339.090909 L422.755623,339.090909 L422.755623,352.47733 L413.860393,374.784062 L413.860393,383.710328 L400.505641,383.710328 L396.058026,397.090794 L396.058026,406.01706 L400.505641,414.937371 L400.505641,423.863636 L391.604457,437.250057 L387.156842,437.250057 L382.709227,446.170368 L382.709227,468.4771 L396.058026,468.4771 L396.058026,481.869476 L400.505641,513.096519 L404.95921,513.096519 L400.505641,522.022785 L396.058026,535.403251 L396.058026,553.249828 L409.406825,553.249828 L413.860393,557.715938 L418.308008,566.636249 L431.656807,566.636249 L440.557991,575.562514 L449.459175,575.562514 L449.459175,584.48878 L445.01156,597.869246 L445.01156,606.795512 L436.104422,611.255667 L431.656807,629.102244 L480.610341,660.335242 L529.557921,682.641974 L605.209053,718.335127 L680.860185,749.568124 L778.767253,780.801122 L854.418384,803.107854 L925.615947,825.414586 L1001.26708,843.261162 L1076.92416,856.653538 L1148.12173,865.573849 L1201.52288,870.034005 L1210.42406,856.653538 L1210.42406,834.340852 L1214.87167,820.954431 L1241.57523,789.721433 L1250.47641,771.874856 L1259.37759,758.49439 L1268.27878,727.261392 L1250.47641,727.261392 L1246.02284,718.335127 L1259.37759,704.948706 L1290.52876,718.335127 L1308.32517,713.874971 L1308.32517,696.028395 L1299.42399,682.641974 L1272.72639,664.795397 L1205.97644,651.408976 L1201.52288,642.488665 L1201.52288,638.02851 L1205.97644,629.102244 L1232.67404,638.02851 L1286.07519,660.335242 L1294.97638,673.721663 L1312.77874,664.795397 L1339.47634,682.641974 L1361.72632,664.795397 L1401.77867,651.408976 L1419.58104,620.181933 L1428.47627,597.869246 L1379.52869,588.942981 L1348.37752,557.715938 L1348.37752,544.329517 L1397.33106,566.636249 L1415.12747,575.562514 L1428.47627,557.715938 L1441.82507,544.329517 L1437.37745,535.403251 L1428.47627,522.022785 L1441.82507,513.096519 L1477.42981,535.403251 L1486.33099,530.943096 L1477.42981,513.096519 L1481.87742,499.716053 L1499.67979,522.022785 L1521.93572,513.096519 L1530.83095,499.716053 L1539.73214,481.869476 L1544.17975,468.4771 L1513.02859,428.323792 L1521.93572,406.01706 L1526.38334,361.397641 L1472.98219,330.164643 L1450.73221,352.47733 L1455.17982,406.01706 L1432.92984,437.250057 L1419.58104,468.4771 L1392.87749,446.170368 L1401.77867,397.090794 L1379.52869,361.397641 L1357.27871,414.937371 L1348.37752,374.784062 L1294.97638,339.090909 L1308.32517,307.857911 L1281.62758,232.01145 L1268.27878,214.164873 L1263.82521,223.085184 L1232.67404,321.244333 L1277.17401,361.397641 L1241.57523,423.863636 L1223.77286,481.869476 L1192.62765,406.01706 L1157.02291,428.323792 L1116.97651,437.250057 L1045.773,392.630639 L1041.31943,352.47733 L970.121866,361.397641 L987.91828,392.630639 L970.121866,459.556789 L930.069516,370.323907 L845.517201,352.47733 L841.069586,321.244333 L863.319568,321.244333 L858.865999,290.011335 L818.813649,276.624914 L792.116052,232.01145 L765.418454,214.164873 L747.616086,187.392031 L716.46492,182.931876 L720.912535,156.159033 L694.214937,169.545455 L680.860185,147.238723 L689.767322,116.005725 L680.860185,102.619304 L663.063771,116.005725 L645.261403,124.931991 L600.761438,116.005725 L569.610272,93.698993 L600.761438,102.619304 L636.360219,107.085414 L645.261403,102.619304 L605.209053,80.3125718 L565.162657,80.3125718 L538.459105,84.7727273 L520.662691,102.619304 L511.761508,80.3125718 L493.95914,71.3863062 Z M1424.02866,107.085414 L1428.47627,124.931991 L1424.02866,147.238723 L1406.23224,169.545455 L1401.77867,187.392031 L1406.23224,200.778452 L1428.47627,223.085184 L1432.92984,254.318182 L1441.82507,263.244447 L1455.17982,263.244447 L1464.08101,236.471605 L1450.73221,223.085184 L1446.28459,209.698763 L1450.73221,200.778452 L1450.73221,187.392031 L1441.82507,178.465765 L1437.37745,178.465765 L1441.82507,156.159033 L1464.08101,129.392146 L1481.87742,107.085414 L1486.33099,107.085414 L1495.23217,116.005725 L1495.23217,133.852301 L1504.1274,147.238723 L1508.58097,169.545455 L1504.1274,209.698763 L1508.58097,214.164873 L1530.83095,191.852187 L1539.73214,187.392031 L1553.08094,209.698763 L1561.98212,209.698763 L1566.42974,187.392031 L1553.08094,178.465765 L1553.08094,169.545455 L1570.8833,160.619189 L1593.13329,169.545455 L1597.58686,191.852187 L1615.38327,178.465765 L1619.83088,191.852187 L1619.83088,209.698763 L1637.63325,214.164873 L1646.53444,232.01145 L1659.88919,223.085184 L1655.42967,200.778452 L1668.78442,200.778452 L1686.58679,223.085184 L1677.6856,245.397871 L1699.93558,263.244447 L1713.28438,254.318182 L1717.732,232.01145 L1744.43555,232.01145 L1748.88912,254.318182 L1731.0808,276.624914 L1735.54032,285.551179 L1757.78435,267.704603 L1757.78435,254.318182 L1766.68553,245.397871 L1784.4879,245.397871 L1771.1391,267.704603 L1757.78435,285.551179 L1775.58672,285.551179 L1793.38313,290.011335 L1806.73788,285.551179 L1811.19145,298.937601 L1802.29027,307.857911 L1784.4879,307.857911 L1766.68553,316.778222 L1784.4879,339.090909 L1806.73788,339.090909 L1828.98787,361.397641 L1846.79023,361.397641 L1864.58665,352.47733 L1873.48783,352.47733 L1882.38901,361.397641 L1877.9414,374.784062 L1886.84258,383.710328 L1904.639,383.710328 L1913.54018,374.784062 L1917.9878,383.710328 L1922.44136,392.630639 L1944.69135,383.710328 L1958.04015,383.710328 L1966.94133,392.630639 L1962.49372,406.01706 L1949.14492,406.01706 L1949.14492,414.937371 L1953.59253,428.323792 L1958.04015,428.323792 L1958.04015,446.170368 L1944.69135,446.170368 L1944.69135,459.556789 L1958.04015,468.4771 L1958.04015,490.789787 L1944.69135,490.789787 L1935.79016,481.869476 L1926.88898,481.869476 L1917.9878,477.403366 L1904.639,446.170368 L1895.73781,437.250057 L1869.04022,446.170368 L1842.33666,446.170368 L1855.68546,459.556789 L1855.68546,468.4771 L1833.44143,468.4771 L1846.79023,481.869476 L1860.13903,499.716053 L1873.48783,499.716053 L1886.84258,522.022785 L1904.639,513.096519 L1922.44136,522.022785 L1926.88898,544.329517 L1958.04015,553.249828 L1953.59253,566.636249 L1953.59253,588.942981 L1971.3949,611.255667 L1975.84251,620.181933 L1940.24373,620.181933 L1891.2902,588.942981 L1886.84258,597.869246 L1869.04022,597.869246 L1864.58665,611.255667 L1904.639,629.102244 L1917.9878,642.488665 L1949.14492,642.488665 L1962.49372,651.408976 L1949.14492,682.641974 L1891.2902,664.795397 L1864.58665,664.795397 L1846.79023,660.335242 L1815.63907,664.795397 L1793.38313,642.488665 L1797.8367,620.181933 L1780.03433,620.181933 L1744.43555,606.795512 L1731.0808,575.562514 L1713.28438,575.562514 L1717.732,606.795512 L1695.48797,597.869246 L1682.13322,611.255667 L1646.53444,620.181933 L1619.83088,597.869246 L1633.18564,557.715938 L1677.6856,557.715938 L1713.28438,544.329517 L1713.28438,530.943096 L1699.93558,513.096519 L1708.83677,490.789787 L1722.18557,468.4771 L1753.33673,468.4771 L1771.1391,481.869476 L1788.93552,481.869476 L1802.29027,468.4771 L1793.38313,446.170368 L1757.78435,446.170368 L1757.78435,459.556789 L1739.98794,459.556789 L1722.18557,446.170368 L1726.63318,423.863636 L1722.18557,414.937371 L1664.3368,352.47733 L1619.83088,339.090909 L1606.48209,321.244333 L1588.68567,298.937601 L1566.42974,285.551179 L1553.08094,285.551179 L1566.42974,316.778222 L1561.98212,321.244333 L1530.83095,307.857911 L1513.02859,307.857911 L1490.7786,330.164643 L1437.37745,307.857911 L1410.67986,307.857911 L1379.52869,285.551179 L1375.08108,263.244447 L1383.98226,263.244447 L1401.77867,267.704603 L1406.23224,254.318182 L1383.98226,254.318182 L1379.52869,236.471605 L1361.72632,232.01145 L1357.27871,209.698763 L1361.72632,178.465765 L1375.08108,156.159033 L1406.23224,116.005725 L1424.02866,107.085414 Z" id="Stroke-1"></path>
                </g>
            </g>
        </g>
    </g>
</svg>